<?xml version="1.0" encoding="utf-8"?>
<svg
        version="1.1"
        xmlns="http://www.w3.org/2000/svg"
        width="500"
        height="230">
    <g>
        <path style="fill:red" class="st0" d="M446.6,109.8c-0.1-2.1,0.2-4.3-1.8-5.8c-0.5-4.7-2.7-8.6-5.8-12c-5.7-11.3-12.2-22-21.9-30.4
			c-2.8-4-6.9-6.6-10.8-9.3c-14.7-10.2-31.4-15.7-48.3-20.6c-13.2-3.8-26.5-7.3-40.4-7.3c0,0,0,0,0,0c-1.5-1.5-3.5-1.4-5.3-1.8
			c-15.4-2.9-31.1-3.5-46.7-5.5c-18.4-2.3-37-3.5-55.5-4.1c-8.8-2.4-17.9-1.4-26.8-3.2c-5.8-1.2-11.4-1-17,0.9c-1.5,0.5-3.4,0-4,1.9
			c-0.8,2.8,2,2.9,3.4,3.8c1.6,1,3.8,1.4,5,2.6c2.1,2.1-1.6,1.8-1.7,3.2v0c-9.3,0.3-18.1,3.5-27.1,5.4c-4.6,1-9.6,1.1-13.4,4.5
			c0,0,0,0,0,0l-0.9-0.1l-0.8,0.5c-25.7,7.6-50.5,17.5-72.6,32.9c-16.9,11.8-30.5,26.8-38.4,46.2c-6.3,15.3-8.4,30.9-2,46.9
			c0.3,3.7,1.8,6.8,4.3,9.5c2.6,7.2,7.4,12.6,13.7,16.9c13.6,13.1,30.6,19.9,47.9,25.9c7.6,3.1,15.5,4.9,23.7,5.5
			c0.7,0,1.3,0.1,1.9,0.1c21.7,4.6,43.5,6.7,65.6,5.9c4,1.7,8.3,1.4,12.4,1.3c16.1-0.4,32.2-0.8,48.3-1.7
			c10.3-0.6,20.6-0.9,30.6-3.8c7.2,0.4,14.1-0.9,20.9-3.2c0.3,0,0.6-0.1,1-0.3c1.1-0.1,2.2-0.3,3.3-0.4c3.1,0.4,6.1,0.2,8.8-1.1
			c0.4-0.1,0.8-0.3,1.2-0.6c0.6,0.3,1.1,0.2,1.6-0.3c23.5-3.3,46.2-9.9,68.5-17.8c15.3-5.4,30.5-11.3,44-20.7
			c3.2-0.3,5.4-2.4,7.6-4.4c13-6.6,23.4-15.7,27.3-30.4c0,0,0,0,0,0C450.2,129.4,449.6,119.6,446.6,109.8z M383.6,176.3
			c-0.4-1.2,0.4-1.9,1.4-2.5C384.6,174.5,384.2,175.4,383.6,176.3z M440.7,103.9c-0.1,0-0.3,0-0.4-0.1c0.2,0,0.3-0.1,0.4-0.1
			C440.7,103.8,440.7,103.8,440.7,103.9z M317.6,24.5c-0.7,0-1.4,0-2.2-0.1C316.2,24.4,316.9,24.4,317.6,24.5z M99.7,210.8
			C99.7,210.8,99.7,210.8,99.7,210.8c0.1,0,0.1,0,0.2,0c-0.1,0.1-0.1,0.1-0.2,0.2C99.7,210.9,99.7,210.8,99.7,210.8z M124.9,201.1
			c0.3-0.3,0.6-0.6,0.8-0.9c0,0,0.1-0.1,0.1-0.1c0,0,0,0-0.1,0.1c0.1-0.1,0.3-0.3,0.4-0.4c-0.1,0.1-0.1,0.1-0.2,0.2
			c0,0-0.1,0.1-0.1,0.1c0,0,0.1-0.1,0.1-0.1C125.6,200.4,125.2,200.8,124.9,201.1C124.9,201.2,124.9,201.1,124.9,201.1z
			 M126.2,199.6c0.2-0.2,0.3-0.4,0.4-0.6c0,0,0,0,0.1,0C126.6,199.3,126.4,199.5,126.2,199.6z M177.1,210.8
			C177.1,210.7,177.2,210.7,177.1,210.8C177.2,210.7,177.2,210.7,177.1,210.8C177.1,210.8,177.1,210.8,177.1,210.8z M177.2,210.8
			c0.1,0,0.2,0,0.3,0c-0.1,0-0.2,0.1-0.3,0.1C177.2,210.9,177.2,210.8,177.2,210.8z M183.1,192.5c-2.9,0-5.8,0.4-8.3,2.1
			c-0.9,0.7-1.5,1.5-1.8,2.3c-4.5-3.6-9.8-2.1-14.8-2.2c-3,0.7-6.1,1.3-9.1,1.8c-15.9-1.1-31.7-2.1-47.6-3.2l-0.9-0.4l-0.9,0.2
			c-7.7-1.6-15.5-3.2-23.4-3.4c-6.3-1.9-12.6-3.9-19-5.8c-0.2-0.4-0.4-0.8-0.6-1.3c-4.3-3.9-8.4-8.2-14.7-8.8
			c-0.1,0-0.1-0.1-0.2-0.1c0.2-0.1,0.4-0.2,0.6-0.3c1.6-4.1-0.1-7.1-3-9.8c-0.6-0.5-1-1-1.5-1.5c-3.2-18,0.3-34.8,10.1-50.2
			c2.8-4.4,6.3-8.3,9.6-12.3c0.3-0.1,0.6-0.2,0.9-0.4c0.8-0.5,1.5-1,2-1.8c0.2-0.4,0.4-0.8,0.6-1.3c4.1-3.5,8.2-6.9,12.2-10.4
			c0.1,0,0.2,0,0.4,0c0.8-0.4,1.5-0.9,2-1.7c0-0.1,0.1-0.1,0.1-0.2c6.6-4,13.2-8,19.7-12c0.2-0.1,0.4-0.2,0.6-0.3
			c2.8-0.4,5.2-1.8,7.2-3.7c0.7,0.2,1.4,0.5,2.1,0.8c22.6-7.7,45-16.1,68.2-22c0.6-0.1,1-0.8,1.4-1.3c0.2-0.5,0.2-0.9,0.3-1.4
			c0.6-0.1,1.2-0.1,1.7-0.2c2.7,0,5.4,0.4,7.8-1.3c4.6-0.4,9.3,0.2,13.6-2.1c11.6-0.4,23,1.2,34.1,4.1c3.4,0.9,6.7,1.8,8.8-1.2
			c1.7-2.4-1.4-4.5-2.5-6.8c-0.5-1.2-1-2.4-1.5-3.5c7.8,0.2,15.3,1.7,22.9,3.3c-0.1,0.7,0.1,1.4,0.6,2.6c4.6,2.3,9.1,2.9,13.6,0.4
			c0.3,0.4,0.6,0.9,1,1.3c2.7,2.1,6,2,9.2,2.4c29.6,3.9,59.3,7.5,87.8,17.3c9.1,3.1,18,6.8,27.6,8.2c0.5-0.4,1-0.8,1.5-1.2
			c0,0.2,0,0.4,0,0.6c-0.2,2.2,1,3.7,2.5,4.9c8.1,6.2,14,13.9,17.2,23.7c0.6,1.8,1.8,3.3,3.8,3.8c-0.5,0.3-1,0.7-1.5,1.4
			c-2.6,18.1-11.3,32-27.6,40.7c-2.6,1.4-4.7,3.3-5.6,6.3c-8.2,3.9-16.2,8.2-24.6,11.9c-13.5,6-27.7,10.2-41.5,15.4
			c-0.2-0.3-0.3-0.6-0.6-0.9c-4.2-1.1-7.9,0-11.3,2.5c-0.2,1.1-0.5,1.6-0.8,1.8l0,0l-0.1,0c-0.9,0.5-2.2-1.7-3.1-1.4
			c-5.4,0.8-11.5-0.7-15.6,4.6c0.1,0.3,0.3,0.6,0.4,0.8c-5.9,0.9-11.8,1.5-17.5,3.4c0,0.1-0.1,0.2-0.1,0.2c-0.6-0.7-1.5-1.3-2.9-1.8
			c-1.6-0.3-3.2-0.4-4.8-0.1C240,190,211.6,192.5,183.1,192.5z"/>
    </g>
</svg>
